# xmcd
#
# Track frame offsets: 
#        150
#        22062
#        40809
#        65178
#        81488
#        108035
#        128261
#        149462
#        173709
#        197009
#
# Disc length: 3124 seconds
#
# Revision: 0
# Processed by: cddbd v1.5.2PL0 Copyright (c) Steve Scherf et al.
# Submitted via: ExactAudioCopy v0.95a5
#
DISCID=870c320a
DTITLE=Joanne Shaw Taylor - White Sugar
DYEAR=2009
DGENRE=Blues
TTITLE0=Going Home
TTITLE1=Just Another Word
TTITLE2=Bones
TTITLE3=Who Do You Want Me To Be?
TTITLE4=Time Has Come
TTITLE5=White Sugar
TTITLE6=Kiss The Ground Goodbye
TTITLE7=Heavy Heart
TTITLE8=Watch 'Em Burn
TTITLE9=Blackest Day
EXTD=
EXTT0=
EXTT1=
EXTT2=
EXTT3=
EXTT4=
EXTT5=
EXTT6=
EXTT7=
EXTT8=
EXTT9=
PLAYORDER=
